<svg width="1232.16376953125px" height="121.40498046875px" xmlns="http://www.w3.org/2000/svg" viewBox="-366.081884765625 14.297509765625001 1232.16376953125 121.40498046875" style="background: rgba(0, 0, 0, 0);" preserveAspectRatio="xMidYMid"><defs><filter id="editing-vr"><feFlood flood-color="#f00" flood-opacity="0.7" result="c1"></feFlood><feFlood flood-color="#00f" flood-opacity="0.7" result="c3"></feFlood><feComposite operator="in" in="c1" in2="SourceAlpha" result="text-c1"></feComposite><feComposite operator="in" in="c3" in2="SourceAlpha" result="text-c3"></feComposite><feOffset in="text-c1" dx="5" dy="-1" result="text1"></feOffset><feOffset in="text-c3" dx="-5" dy="1" result="text3"></feOffset><feBlend in="SourceGraphic" in2="text1" mode="multiply" result="text4"></feBlend><feBlend in="text4" in2="text3" mode="multiply"></feBlend></filter></defs><g filter="url(#editing-vr)"><g transform="translate(-195.78719115257263, 104.76000022888184)"><path d="M42.62-26.56L42.62-26.56L42.62-26.56Q42.62 0.70 13.06 0.70L13.06 0.70L13.06 0.70Q8.32 0.70 0.51-0.45L0.51-0.45L7.68-38.27L7.68-38.27Q8.19-40.83 8.51-42.30L8.51-42.30L8.51-42.30Q18.24-43.01 22.56-43.01L22.56-43.01L22.56-43.01Q26.88-43.01 30.85-42.11L30.85-42.11L30.85-42.11Q34.82-41.22 37.44-39.23L37.44-39.23L37.44-39.23Q42.62-35.33 42.62-26.56ZM29.44-28.93L29.44-28.93L29.44-28.93Q29.44-38.46 22.59-38.46L22.59-38.46L21.95-38.46L21.95-38.46Q21.63-38.46 21.31-38.40L21.31-38.40L14.72-4.03L14.72-4.03Q14.98-3.90 15.23-3.90L15.23-3.90L15.74-3.90L15.74-3.90Q18.11-3.90 20.58-5.38L20.58-5.38L20.58-5.38Q23.04-6.85 24.96-9.86L24.96-9.86L24.96-9.86Q29.44-16.83 29.44-28.93ZM65.92-17.98L65.92-17.98L65.92-17.98Q68.22-22.08 68.22-26.24L68.22-26.24L68.22-26.24Q68.22-28.99 66.24-28.99L66.24-28.99L66.24-28.99Q64.70-28.99 63.10-26.37L63.10-26.37L63.10-26.37Q61.44-23.74 60.93-20.35L60.93-20.35L57.60 0L44.35 1.28L50.88-32.64L61.44-33.92L60.29-27.46L60.29-27.46Q63.42-33.92 70.46-33.92L70.46-33.92L70.46-33.92Q74.18-33.92 76.19-32L76.19-32L76.19-32Q78.21-30.08 78.21-26.14L78.21-26.14L78.21-26.14Q78.21-22.21 75.62-19.71L75.62-19.71L75.62-19.71Q73.02-17.22 68.61-17.22L68.61-17.22L68.61-17.22Q66.69-17.22 65.92-17.98ZM82.02-1.92L82.02-1.92L82.02-1.92Q80.51-3.58 79.84-6.21L79.84-6.21L79.84-6.21Q79.17-8.83 79.17-13.12L79.17-13.12L79.17-13.12Q79.17-17.41 80.64-21.31L80.64-21.31L80.64-21.31Q82.11-25.22 84.80-28.03L84.80-28.03L84.80-28.03Q90.30-33.92 99.39-33.92L99.39-33.92L99.39-33.92Q102.66-33.92 105.02-32.83L105.02-32.83L115.97-33.92L111.23-8.96L111.23-8.96Q111.04-8.19 111.04-6.78L111.04-6.78L111.04-6.78Q111.04-5.38 111.90-4.48L111.90-4.48L111.90-4.48Q112.77-3.58 114.05-3.46L114.05-3.46L114.05-3.46Q113.41-1.28 111.07 0L111.07 0L111.07 0Q108.74 1.28 106.11 1.28L106.11 1.28L106.11 1.28Q103.49 1.28 101.73 0.29L101.73 0.29L101.73 0.29Q99.97-0.70 99.46-2.37L99.46-2.37L99.46-2.37Q98.43-0.77 96.26 0.26L96.26 0.26L96.26 0.26Q94.08 1.28 91.17 1.28L91.17 1.28L91.17 1.28Q88.26 1.28 85.89 0.51L85.89 0.51L85.89 0.51Q83.52-0.26 82.02-1.92ZM95.52-27.90L95.52-27.90L95.52-27.90Q94.78-26.75 94.14-24.80L94.14-24.80L94.14-24.80Q93.50-22.85 92.45-17.63L92.45-17.63L92.45-17.63Q91.39-12.42 91.39-8.70L91.39-8.70L91.39-8.70Q91.39-4.99 91.97-3.90L91.97-3.90L91.97-3.90Q92.54-2.82 93.57-2.82L93.57-2.82L93.57-2.82Q95.62-2.82 97.12-4.77L97.12-4.77L97.12-4.77Q98.62-6.72 99.20-10.18L99.20-10.18L102.59-28.93L102.59-28.93Q101.25-30.08 99.68-30.08L99.68-30.08L99.68-30.08Q98.11-30.08 97.18-29.57L97.18-29.57L97.18-29.57Q96.26-29.06 95.52-27.90ZM123.71-26.75L123.71-26.75L123.71-26.75Q125.89-29.82 129.18-31.87L129.18-31.87L129.18-31.87Q132.48-33.92 136.51-33.92L136.51-33.92L136.51-33.92Q140.54-33.92 142.46-32.64L142.46-32.64L155.01-33.92L150.66-9.34L150.66-9.34Q148.42 3.20 143.68 8.13L143.68 8.13L143.68 8.13Q139.14 12.80 130.30 12.80L130.30 12.80L130.30 12.80Q123.58 12.80 119.74 10.69L119.74 10.69L119.74 10.69Q115.90 8.58 115.90 5.06L115.90 5.06L115.90 5.06Q115.90 2.43 117.89 0.93L117.89 0.93L117.89 0.93Q119.87-0.58 122.94-0.58L122.94-0.58L122.94-0.58Q125.63-0.58 127.68 0.64L127.68 0.64L127.68 0.64Q128.90 1.28 129.47 2.18L129.47 2.18L129.47 2.18Q128 3.46 128 5.57L128 5.57L128 5.57Q128 8.32 130.56 8.32L130.56 8.32L130.56 8.32Q134.85 8.32 137.28-1.79L137.28-1.79L137.28-1.79Q137.98-4.54 138.56-7.30L138.56-7.30L138.56-7.30Q135.68-3.78 129.15-3.78L129.15-3.78L129.15-3.78Q124.61-3.78 121.98-5.95L121.98-5.95L121.98-5.95Q119.36-8.13 119.36-13.25L119.36-13.25L119.36-13.25Q119.36-16.45 120.45-20.06L120.45-20.06L120.45-20.06Q121.54-23.68 123.71-26.75ZM132.03-13.06L132.03-13.06L132.03-13.06Q132.03-8.70 134.27-8.70L134.27-8.70L134.27-8.70Q135.81-8.70 137.28-10.37L137.28-10.37L137.28-10.37Q138.43-11.71 138.88-13.70L138.88-13.70L142.14-30.14L142.14-30.14Q141.82-30.21 141.50-30.34L141.50-30.34L141.50-30.34Q140.86-30.59 140.03-30.59L140.03-30.59L140.03-30.59Q136.13-30.59 133.82-24.19L133.82-24.19L133.82-24.19Q132.03-19.20 132.03-13.06ZM162.05-26.75L162.05-26.75L162.05-26.75Q164.22-29.82 167.52-31.87L167.52-31.87L167.52-31.87Q170.82-33.92 174.85-33.92L174.85-33.92L174.85-33.92Q178.88-33.92 180.80-32.64L180.80-32.64L193.34-33.92L188.99-9.34L188.99-9.34Q186.75 3.20 182.02 8.13L182.02 8.13L182.02 8.13Q177.47 12.80 168.64 12.80L168.64 12.80L168.64 12.80Q161.92 12.80 158.08 10.69L158.08 10.69L158.08 10.69Q154.24 8.58 154.24 5.06L154.24 5.06L154.24 5.06Q154.24 2.43 156.22 0.93L156.22 0.93L156.22 0.93Q158.21-0.58 161.28-0.58L161.28-0.58L161.28-0.58Q163.97-0.58 166.02 0.64L166.02 0.64L166.02 0.64Q167.23 1.28 167.81 2.18L167.81 2.18L167.81 2.18Q166.34 3.46 166.34 5.57L166.34 5.57L166.34 5.57Q166.34 8.32 168.90 8.32L168.90 8.32L168.90 8.32Q173.18 8.32 175.62-1.79L175.62-1.79L175.62-1.79Q176.32-4.54 176.90-7.30L176.90-7.30L176.90-7.30Q174.02-3.78 167.49-3.78L167.49-3.78L167.49-3.78Q162.94-3.78 160.32-5.95L160.32-5.95L160.32-5.95Q157.70-8.13 157.70-13.25L157.70-13.25L157.70-13.25Q157.70-16.45 158.78-20.06L158.78-20.06L158.78-20.06Q159.87-23.68 162.05-26.75ZM170.37-13.06L170.37-13.06L170.37-13.06Q170.37-8.70 172.61-8.70L172.61-8.70L172.61-8.70Q174.14-8.70 175.62-10.37L175.62-10.37L175.62-10.37Q176.77-11.71 177.22-13.70L177.22-13.70L180.48-30.14L180.48-30.14Q180.16-30.21 179.84-30.34L179.84-30.34L179.84-30.34Q179.20-30.59 178.37-30.59L178.37-30.59L178.37-30.59Q174.46-30.59 172.16-24.19L172.16-24.19L172.16-24.19Q170.37-19.20 170.37-13.06ZM198.62-1.92L198.62-1.92L198.62-1.92Q197.12-3.58 196.45-6.21L196.45-6.21L196.45-6.21Q195.78-8.83 195.78-13.12L195.78-13.12L195.78-13.12Q195.78-17.41 197.25-21.31L197.25-21.31L197.25-21.31Q198.72-25.22 201.41-28.03L201.41-28.03L201.41-28.03Q206.91-33.92 216-33.92L216-33.92L216-33.92Q219.26-33.92 221.63-32.83L221.63-32.83L232.58-33.92L227.84-8.96L227.84-8.96Q227.65-8.19 227.65-6.78L227.65-6.78L227.65-6.78Q227.65-5.38 228.51-4.48L228.51-4.48L228.51-4.48Q229.38-3.58 230.66-3.46L230.66-3.46L230.66-3.46Q230.02-1.28 227.68 0L227.68 0L227.68 0Q225.34 1.28 222.72 1.28L222.72 1.28L222.72 1.28Q220.10 1.28 218.34 0.29L218.34 0.29L218.34 0.29Q216.58-0.70 216.06-2.37L216.06-2.37L216.06-2.37Q215.04-0.77 212.86 0.26L212.86 0.26L212.86 0.26Q210.69 1.28 207.78 1.28L207.78 1.28L207.78 1.28Q204.86 1.28 202.50 0.51L202.50 0.51L202.50 0.51Q200.13-0.26 198.62-1.92ZM212.13-27.90L212.13-27.90L212.13-27.90Q211.39-26.75 210.75-24.80L210.75-24.80L210.75-24.80Q210.11-22.85 209.06-17.63L209.06-17.63L209.06-17.63Q208-12.42 208-8.70L208-8.70L208-8.70Q208-4.99 208.58-3.90L208.58-3.90L208.58-3.90Q209.15-2.82 210.18-2.82L210.18-2.82L210.18-2.82Q212.22-2.82 213.73-4.77L213.73-4.77L213.73-4.77Q215.23-6.72 215.81-10.18L215.81-10.18L219.20-28.93L219.20-28.93Q217.86-30.08 216.29-30.08L216.29-30.08L216.29-30.08Q214.72-30.08 213.79-29.57L213.79-29.57L213.79-29.57Q212.86-29.06 212.13-27.90ZM235.20-3.07L235.20-3.07L243.14-44.80L256.13-46.08L254.14-36.29L254.14-36.29Q253.44-33.28 252.54-31.17L252.54-31.17L252.54-31.17Q253.95-32.96 257.02-33.66L257.02-33.66L257.02-33.66Q257.92-33.92 259.01-33.92L259.01-33.92L259.01-33.92Q264.96-33.92 268.22-30.30L268.22-30.30L268.22-30.30Q271.49-26.69 271.49-19.71L271.49-19.71L271.49-19.71Q271.49-10.62 266.30-4.93L266.30-4.93L266.30-4.93Q260.74 1.28 250.62 1.28L250.62 1.28L250.62 1.28Q243.65 1.28 238.40-1.02L238.40-1.02L238.40-1.02Q236.54-1.86 235.20-3.07ZM251.46-22.40L248.06-3.65L248.06-3.65Q249.41-2.50 251.07-2.50L251.07-2.50L251.07-2.50Q252.74-2.50 253.70-3.14L253.70-3.14L253.70-3.14Q254.66-3.78 255.36-5.06L255.36-5.06L255.36-5.06Q257.28-8.51 258.82-19.07L258.82-19.07L258.82-19.07Q259.26-22.08 259.26-25.09L259.26-25.09L259.26-25.09Q259.26-28.10 258.59-29.06L258.59-29.06L258.59-29.06Q257.92-30.02 256.64-30.02L256.64-30.02L256.64-30.02Q252.74-30.02 251.46-22.40L251.46-22.40ZM290.62-3.52L290.62-3.52L290.62-3.52Q288.64 1.28 282.30 1.28L282.30 1.28L282.30 1.28Q279.10 1.28 277.06-0.96L277.06-0.96L277.06-0.96Q275.39-2.82 275.39-4.93L275.39-4.93L275.39-4.93Q275.39-9.73 277.63-20.22L277.63-20.22L282.30-44.80L295.30-46.08L289.09-13.70L289.09-13.70Q288-8.96 288-7.30L288-7.30L288-7.30Q288-3.65 290.62-3.52ZM321.98-10.82L321.98-10.82L321.98-10.82Q323.58-9.73 323.58-7.33L323.58-7.33L323.58-7.33Q323.58-4.93 322.37-3.39L322.37-3.39L322.37-3.39Q321.15-1.86 319.17-0.83L319.17-0.83L319.17-0.83Q315.07 1.28 310.66 1.28L310.66 1.28L310.66 1.28Q306.24 1.28 303.65 0.32L303.65 0.32L303.65 0.32Q301.06-0.64 299.33-2.43L299.33-2.43L299.33-2.43Q295.94-5.82 295.94-12.03L295.94-12.03L295.94-12.03Q295.94-21.70 301.18-27.58L301.18-27.58L301.18-27.58Q306.82-33.92 316.61-33.92L316.61-33.92L316.61-33.92Q322.69-33.92 325.70-31.36L325.70-31.36L325.70-31.36Q327.94-29.44 327.94-26.30L327.94-26.30L327.94-26.30Q327.94-15.04 308.48-15.04L308.48-15.04L308.48-15.04Q308.22-13.38 308.22-11.97L308.22-11.97L308.22-11.97Q308.22-9.02 309.54-7.90L309.54-7.90L309.54-7.90Q310.85-6.78 313.28-6.78L313.28-6.78L313.28-6.78Q315.71-6.78 318.30-7.90L318.30-7.90L318.30-7.90Q320.90-9.02 321.98-10.82ZM308.93-17.79L308.93-17.79L308.93-17.79Q313.47-17.79 316.10-20.61L316.10-20.61L316.10-20.61Q318.72-23.30 318.72-27.58L318.72-27.58L318.72-27.58Q318.72-29.06 318.18-29.86L318.18-29.86L318.18-29.86Q317.63-30.66 316.54-30.66L316.54-30.66L316.54-30.66Q315.46-30.66 314.53-30.24L314.53-30.24L314.53-30.24Q313.60-29.82 312.64-28.42L312.64-28.42L312.64-28.42Q310.27-25.22 308.93-17.79ZM346.08-1.92L346.08-1.92L346.08-1.92Q344.58-3.58 343.90-6.21L343.90-6.21L343.90-6.21Q343.23-8.83 343.23-13.12L343.23-13.12L343.23-13.12Q343.23-17.41 344.70-21.31L344.70-21.31L344.70-21.31Q346.18-25.22 348.86-28.03L348.86-28.03L348.86-28.03Q354.37-33.92 363.46-33.92L363.46-33.92L363.46-33.92Q366.72-33.92 369.09-32.83L369.09-32.83L380.03-33.92L375.30-8.96L375.30-8.96Q375.10-8.19 375.10-6.78L375.10-6.78L375.10-6.78Q375.10-5.38 375.97-4.48L375.97-4.48L375.97-4.48Q376.83-3.58 378.11-3.46L378.11-3.46L378.11-3.46Q377.47-1.28 375.14 0L375.14 0L375.14 0Q372.80 1.28 370.18 1.28L370.18 1.28L370.18 1.28Q367.55 1.28 365.79 0.29L365.79 0.29L365.79 0.29Q364.03-0.70 363.52-2.37L363.52-2.37L363.52-2.37Q362.50-0.77 360.32 0.26L360.32 0.26L360.32 0.26Q358.14 1.28 355.23 1.28L355.23 1.28L355.23 1.28Q352.32 1.28 349.95 0.51L349.95 0.51L349.95 0.51Q347.58-0.26 346.08-1.92ZM359.58-27.90L359.58-27.90L359.58-27.90Q358.85-26.75 358.21-24.80L358.21-24.80L358.21-24.80Q357.57-22.85 356.51-17.63L356.51-17.63L356.51-17.63Q355.46-12.42 355.46-8.70L355.46-8.70L355.46-8.70Q355.46-4.99 356.03-3.90L356.03-3.90L356.03-3.90Q356.61-2.82 357.63-2.82L357.63-2.82L357.63-2.82Q359.68-2.82 361.18-4.77L361.18-4.77L361.18-4.77Q362.69-6.72 363.26-10.18L363.26-10.18L366.66-28.93L366.66-28.93Q365.31-30.08 363.74-30.08L363.74-30.08L363.74-30.08Q362.18-30.08 361.25-29.57L361.25-29.57L361.25-29.57Q360.32-29.06 359.58-27.90ZM410.56 1.28L410.56 1.28L410.56 1.28Q402.82 1.28 402.82-4.74L402.82-4.74L402.82-4.74Q402.88-6.40 403.39-9.22L403.39-9.22L404.54-15.10L404.54-15.10Q406.27-23.42 406.27-25.28L406.27-25.28L406.27-25.28Q406.27-28.99 404.10-28.99L404.10-28.99L404.10-28.99Q400.45-28.99 398.53-19.46L398.53-19.46L394.75 0L381.89 1.28L388.54-32.70L399.04-33.92L398.02-27.65L398.02-27.65Q401.02-33.92 410.24-33.92L410.24-33.92L410.24-33.92Q414.72-33.92 416.61-32.03L416.61-32.03L416.61-32.03Q418.50-30.14 418.50-25.92L418.50-25.92L418.50-25.92Q418.50-21.95 416.45-12.67L416.45-12.67L416.45-12.67Q415.49-8.51 415.49-6.94L415.49-6.94L415.49-6.94Q415.49-5.38 416.35-4.48L416.35-4.48L416.35-4.48Q417.22-3.58 418.50-3.46L418.50-3.46L418.50-3.46Q417.86-1.28 415.65 0L415.65 0L415.65 0Q413.44 1.28 410.56 1.28ZM443.78-33.92L443.78-33.92L443.78-33.92Q446.08-33.92 447.87-33.41L447.87-33.41L447.87-33.41Q447.94-33.66 448.06-34.37L448.06-34.37L448.38-36.35L448.38-36.35Q448.64-37.63 449.02-39.74L449.02-39.74L450.05-44.80L462.78-46.08L455.68-8.96L455.68-8.96Q455.62-8.58 455.62-7.94L455.62-7.94L455.62-6.91L455.62-6.91Q455.62-5.50 456.32-4.45L456.32-4.45L456.32-4.45Q457.02-3.39 458.18-3.39L458.18-3.39L458.18-3.39Q456.90-0.38 452.99 0.90L452.99 0.90L452.99 0.90Q451.65 1.28 449.76 1.28L449.76 1.28L449.76 1.28Q447.87 1.28 446.14 0.29L446.14 0.29L446.14 0.29Q444.42-0.70 443.90-2.37L443.90-2.37L443.90-2.37Q442.88-0.70 440.83 0.29L440.83 0.29L440.83 0.29Q438.78 1.28 435.81 1.28L435.81 1.28L435.81 1.28Q432.83 1.28 430.37 0.51L430.37 0.51L430.37 0.51Q427.90-0.26 426.37-1.92L426.37-1.92L426.37-1.92Q423.55-5.18 423.55-12.61L423.55-12.61L423.55-12.61Q423.55-22.21 429.18-28.03L429.18-28.03L429.18-28.03Q434.82-33.92 443.78-33.92ZM443.33-30.08L443.33-30.08L443.33-30.08Q440.96-30.08 439.68-27.52L439.68-27.52L439.68-27.52Q438.40-24.96 437.09-18.62L437.09-18.62L437.09-18.62Q435.78-12.29 435.78-6.59L435.78-6.59L435.78-6.59Q435.78-2.69 438.08-2.69L438.08-2.69L438.08-2.69Q440.13-2.69 441.57-4.74L441.57-4.74L441.57-4.74Q443.01-6.78 443.58-10.18L443.58-10.18L447.04-28.93L447.04-28.93Q445.70-30.08 443.33-30.08ZM501.76-29.57L501.76-29.57L501.76-29.57Q502.72-31.49 502.72-33.28L502.72-33.28L502.72-33.28Q502.72-35.07 502.53-36.06L502.53-36.06L502.53-36.06Q502.34-37.06 501.89-37.82L501.89-37.82L501.89-37.82Q500.93-39.49 499.01-39.49L499.01-39.49L499.01-39.49Q496.64-39.49 494.72-37.76L494.72-37.76L494.72-37.76Q492.67-35.97 492.67-33.15L492.67-33.15L492.67-33.15Q492.67-31.36 493.92-29.98L493.92-29.98L493.92-29.98Q495.17-28.61 497.09-27.33L497.09-27.33L497.09-27.33Q499.01-26.05 501.18-24.77L501.18-24.77L501.18-24.77Q503.36-23.49 505.28-21.95L505.28-21.95L505.28-21.95Q509.70-18.43 509.70-13.70L509.70-13.70L509.70-13.70Q509.70-10.50 508.00-7.78L508.00-7.78L508.00-7.78Q506.30-5.06 503.49-3.07L503.49-3.07L503.49-3.07Q497.34 1.28 489.22 1.28L489.22 1.28L489.22 1.28Q482.62 1.28 479.23-0.86L479.23-0.86L479.23-0.86Q475.84-3.01 475.84-6.27L475.84-6.27L475.84-6.27Q475.84-12.10 480.38-13.57L480.38-13.57L480.38-13.57Q481.66-14.02 483.62-14.02L483.62-14.02L483.62-14.02Q485.57-14.02 487.81-13.18L487.81-13.18L487.81-13.18Q486.78-10.56 486.78-8.19L486.78-8.19L486.78-8.19Q486.78-3.07 490.43-3.07L490.43-3.07L490.43-3.07Q492.80-3.07 494.75-4.80L494.75-4.80L494.75-4.80Q496.70-6.53 496.70-8.48L496.70-8.48L496.70-8.48Q496.70-10.43 495.46-11.84L495.46-11.84L495.46-11.84Q494.21-13.25 492.35-14.37L492.35-14.37L492.35-14.37Q490.50-15.49 488.35-16.58L488.35-16.58L488.35-16.58Q486.21-17.66 484.35-19.20L484.35-19.20L484.35-19.20Q480.00-22.72 480.00-28.35L480.00-28.35L480.00-28.35Q480.00-32 481.79-34.85L481.79-34.85L481.79-34.85Q483.58-37.70 486.46-39.62L486.46-39.62L486.46-39.62Q492.22-43.52 499.30-43.52L499.30-43.52L499.30-43.52Q506.37-43.52 509.79-41.41L509.79-41.41L509.79-41.41Q513.22-39.30 513.22-35.71L513.22-35.71L513.22-35.71Q513.22-32.58 510.78-30.59L510.78-30.59L510.78-30.59Q508.67-28.93 506.11-28.93L506.11-28.93L506.11-28.93Q503.55-28.93 501.76-29.57ZM528.51 1.28L528.51 1.28L528.51 1.28Q514.43 1.28 514.43-11.97L514.43-11.97L514.43-11.97Q514.43-21.38 519.62-27.46L519.62-27.46L519.62-27.46Q525.12-33.92 534.66-33.92L534.66-33.92L534.66-33.92Q541.57-33.92 545.09-30.72L545.09-30.72L545.09-30.72Q548.61-27.52 548.61-20.80L548.61-20.80L548.61-20.80Q548.61-10.56 543.10-4.61L543.10-4.61L543.10-4.61Q537.73 1.28 528.51 1.28ZM530.18-26.56L530.18-26.56L530.18-26.56Q529.41-24.83 528.80-22.24L528.80-22.24L528.80-22.24Q528.19-19.65 527.42-15.55L527.42-15.55L527.42-15.55Q526.66-11.46 526.66-6.40L526.66-6.40L526.66-6.40Q526.66-4.74 527.20-3.65L527.20-3.65L527.20-3.65Q527.74-2.56 529.22-2.56L529.22-2.56L529.22-2.56Q530.69-2.56 531.62-3.26L531.62-3.26L531.62-3.26Q532.54-3.97 533.25-5.63L533.25-5.63L533.25-5.63Q534.53-8.58 535.55-14.05L535.55-14.05L535.55-14.05Q536.58-19.52 536.67-21.89L536.67-21.89L536.67-21.89Q536.77-24.26 536.77-26.02L536.77-26.02L536.77-26.02Q536.77-27.78 536.26-28.93L536.26-28.93L536.26-28.93Q535.74-30.08 534.30-30.08L534.30-30.08L534.30-30.08Q532.86-30.08 531.90-29.18L531.90-29.18L531.90-29.18Q530.94-28.29 530.18-26.56ZM572.42-17.98L572.42-17.98L572.42-17.98Q574.72-22.08 574.72-26.24L574.72-26.24L574.72-26.24Q574.72-28.99 572.74-28.99L572.74-28.99L572.74-28.99Q571.20-28.99 569.60-26.37L569.60-26.37L569.60-26.37Q567.94-23.74 567.42-20.35L567.42-20.35L564.10 0L550.85 1.28L557.38-32.64L567.94-33.92L566.78-27.46L566.78-27.46Q569.92-33.92 576.96-33.92L576.96-33.92L576.96-33.92Q580.67-33.92 582.69-32L582.69-32L582.69-32Q584.70-30.08 584.70-26.14L584.70-26.14L584.70-26.14Q584.70-22.21 582.11-19.71L582.11-19.71L582.11-19.71Q579.52-17.22 575.10-17.22L575.10-17.22L575.10-17.22Q573.18-17.22 572.42-17.98ZM586.75-6.40L586.75-6.40L586.75-6.40Q586.75-8.13 587.65-12.48L587.65-12.48L591.04-29.76L587.26-29.76L587.52-31.68L587.52-31.68Q595.20-33.98 602.62-39.62L602.62-39.62L605.70-39.62L604.16-32.64L609.15-32.64L608.58-29.76L603.65-29.76L600.38-12.48L600.38-12.48Q599.55-8.51 599.55-7.17L599.55-7.17L599.55-7.17Q599.55-4.10 602.24-3.46L602.24-3.46L602.24-3.46Q601.60-1.28 599.30 0L599.30 0L599.30 0Q596.99 1.28 593.73 1.28L593.73 1.28L593.73 1.28Q590.46 1.28 588.61-0.77L588.61-0.77L588.61-0.77Q586.75-2.82 586.75-6.40ZM611.36-1.92L611.36-1.92L611.36-1.92Q609.86-3.58 609.18-6.21L609.18-6.21L609.18-6.21Q608.51-8.83 608.51-13.12L608.51-13.12L608.51-13.12Q608.51-17.41 609.98-21.31L609.98-21.31L609.98-21.31Q611.46-25.22 614.14-28.03L614.14-28.03L614.14-28.03Q619.65-33.92 628.74-33.92L628.74-33.92L628.74-33.92Q632.00-33.92 634.37-32.83L634.37-32.83L645.31-33.92L640.58-8.96L640.58-8.96Q640.38-8.19 640.38-6.78L640.38-6.78L640.38-6.78Q640.38-5.38 641.25-4.48L641.25-4.48L641.25-4.48Q642.11-3.58 643.39-3.46L643.39-3.46L643.39-3.46Q642.75-1.28 640.42 0L640.42 0L640.42 0Q638.08 1.28 635.46 1.28L635.46 1.28L635.46 1.28Q632.83 1.28 631.07 0.29L631.07 0.29L631.07 0.29Q629.31-0.70 628.80-2.37L628.80-2.37L628.80-2.37Q627.78-0.77 625.60 0.26L625.60 0.26L625.60 0.26Q623.42 1.28 620.51 1.28L620.51 1.28L620.51 1.28Q617.60 1.28 615.23 0.51L615.23 0.51L615.23 0.51Q612.86-0.26 611.36-1.92ZM624.86-27.90L624.86-27.90L624.86-27.90Q624.13-26.75 623.49-24.80L623.49-24.80L623.49-24.80Q622.85-22.85 621.79-17.63L621.79-17.63L621.79-17.63Q620.74-12.42 620.74-8.70L620.74-8.70L620.74-8.70Q620.74-4.99 621.31-3.90L621.31-3.90L621.31-3.90Q621.89-2.82 622.91-2.82L622.91-2.82L622.91-2.82Q624.96-2.82 626.46-4.77L626.46-4.77L626.46-4.77Q627.97-6.72 628.54-10.18L628.54-10.18L631.94-28.93L631.94-28.93Q630.59-30.08 629.02-30.08L629.02-30.08L629.02-30.08Q627.46-30.08 626.53-29.57L626.53-29.57L626.53-29.57Q625.60-29.06 624.86-27.90ZM647.94-3.07L647.94-3.07L655.87-44.80L668.86-46.08L666.88-36.29L666.88-36.29Q666.18-33.28 665.28-31.17L665.28-31.17L665.28-31.17Q666.69-32.96 669.76-33.66L669.76-33.66L669.76-33.66Q670.66-33.92 671.74-33.92L671.74-33.92L671.74-33.92Q677.70-33.92 680.96-30.30L680.96-30.30L680.96-30.30Q684.22-26.69 684.22-19.71L684.22-19.71L684.22-19.71Q684.22-10.62 679.04-4.93L679.04-4.93L679.04-4.93Q673.47 1.28 663.36 1.28L663.36 1.28L663.36 1.28Q656.38 1.28 651.14-1.02L651.14-1.02L651.14-1.02Q649.28-1.86 647.94-3.07ZM664.19-22.40L660.80-3.65L660.80-3.65Q662.14-2.50 663.81-2.50L663.81-2.50L663.81-2.50Q665.47-2.50 666.43-3.14L666.43-3.14L666.43-3.14Q667.39-3.78 668.10-5.06L668.10-5.06L668.10-5.06Q670.02-8.51 671.55-19.07L671.55-19.07L671.55-19.07Q672.00-22.08 672.00-25.09L672.00-25.09L672.00-25.09Q672.00-28.10 671.33-29.06L671.33-29.06L671.33-29.06Q670.66-30.02 669.38-30.02L669.38-30.02L669.38-30.02Q665.47-30.02 664.19-22.40L664.19-22.40ZM703.36-3.52L703.36-3.52L703.36-3.52Q701.38 1.28 695.04 1.28L695.04 1.28L695.04 1.28Q691.84 1.28 689.79-0.96L689.79-0.96L689.79-0.96Q688.13-2.82 688.13-4.93L688.13-4.93L688.13-4.93Q688.13-9.73 690.37-20.22L690.37-20.22L695.04-44.80L708.03-46.08L701.82-13.70L701.82-13.70Q700.74-8.96 700.74-7.30L700.74-7.30L700.74-7.30Q700.74-3.65 703.36-3.52ZM734.72-10.82L734.72-10.82L734.72-10.82Q736.32-9.73 736.32-7.33L736.32-7.33L736.32-7.33Q736.32-4.93 735.10-3.39L735.10-3.39L735.10-3.39Q733.89-1.86 731.90-0.83L731.90-0.83L731.90-0.83Q727.81 1.28 723.39 1.28L723.39 1.28L723.39 1.28Q718.98 1.28 716.38 0.32L716.38 0.32L716.38 0.32Q713.79-0.64 712.06-2.43L712.06-2.43L712.06-2.43Q708.67-5.82 708.67-12.03L708.67-12.03L708.67-12.03Q708.67-21.70 713.92-27.58L713.92-27.58L713.92-27.58Q719.55-33.92 729.34-33.92L729.34-33.92L729.34-33.92Q735.42-33.92 738.43-31.36L738.43-31.36L738.43-31.36Q740.67-29.44 740.67-26.30L740.67-26.30L740.67-26.30Q740.67-15.04 721.22-15.04L721.22-15.04L721.22-15.04Q720.96-13.38 720.96-11.97L720.96-11.97L720.96-11.97Q720.96-9.02 722.27-7.90L722.27-7.90L722.27-7.90Q723.58-6.78 726.02-6.78L726.02-6.78L726.02-6.78Q728.45-6.78 731.04-7.90L731.04-7.90L731.04-7.90Q733.63-9.02 734.72-10.82ZM721.66-17.79L721.66-17.79L721.66-17.79Q726.21-17.79 728.83-20.61L728.83-20.61L728.83-20.61Q731.46-23.30 731.46-27.58L731.46-27.58L731.46-27.58Q731.46-29.06 730.91-29.86L730.91-29.86L730.91-29.86Q730.37-30.66 729.28-30.66L729.28-30.66L729.28-30.66Q728.19-30.66 727.26-30.24L727.26-30.24L727.26-30.24Q726.34-29.82 725.38-28.42L725.38-28.42L725.38-28.42Q723.01-25.22 721.66-17.79ZM781.95-20.61L794.88-21.76L794.88-21.76Q790.27-11.65 790.27 0.06L790.27 0.06L790.27 0.06Q788.54 1.28 786.02 1.28L786.02 1.28L786.02 1.28Q783.49 1.28 781.89 0.10L781.89 0.10L781.89 0.10Q780.29-1.09 779.97-2.30L779.97-2.30L779.97-2.30Q778.37-0.64 775.78 0.32L775.78 0.32L775.78 0.32Q773.18 1.28 770.43 1.28L770.43 1.28L770.43 1.28Q767.68 1.28 765.28 0.38L765.28 0.38L765.28 0.38Q762.88-0.51 761.02-2.50L761.02-2.50L761.02-2.50Q756.93-6.85 756.93-15.10L756.93-15.10L756.93-15.10Q756.93-27.90 763.78-35.58L763.78-35.58L763.78-35.58Q770.82-43.52 783.30-43.52L783.30-43.52L783.30-43.52Q791.94-43.52 795.01-39.04L795.01-39.04L795.01-39.04Q795.97-37.63 795.97-35.94L795.97-35.94L795.97-35.94Q795.97-34.24 795.23-32.80L795.23-32.80L795.23-32.80Q794.50-31.36 793.34-30.21L793.34-30.21L793.34-30.21Q790.59-27.65 787.20-27.65L787.20-27.65L787.20-27.65Q785.86-27.65 784.58-28.10L784.58-28.10L784.58-28.10Q784.83-30.02 784.83-32.26L784.83-32.26L784.83-32.26Q784.83-34.50 784.67-35.52L784.67-35.52L784.67-35.52Q784.51-36.54 784.13-37.38L784.13-37.38L784.13-37.38Q783.30-39.10 781.47-39.10L781.47-39.10L781.47-39.10Q779.65-39.10 777.63-37.15L777.63-37.15L777.63-37.15Q775.62-35.20 774.02-32L774.02-32L774.02-32Q770.50-24.83 770.50-16.19L770.50-16.19L770.50-16.19Q770.50-12.22 772.03-9.41L772.03-9.41L772.03-9.41Q773.70-6.34 776.64-6.34L776.64-6.34L776.64-6.34Q777.66-6.34 778.59-6.85L778.59-6.85L778.59-6.85Q779.52-7.36 779.90-7.74L779.90-7.74L781.95-20.61ZM818.05-17.98L818.05-17.98L818.05-17.98Q820.35-22.08 820.35-26.24L820.35-26.24L820.35-26.24Q820.35-28.99 818.37-28.99L818.37-28.99L818.37-28.99Q816.83-28.99 815.23-26.37L815.23-26.37L815.23-26.37Q813.57-23.74 813.06-20.35L813.06-20.35L809.73 0L796.48 1.28L803.01-32.64L813.57-33.92L812.42-27.46L812.42-27.46Q815.55-33.92 822.59-33.92L822.59-33.92L822.59-33.92Q826.30-33.92 828.32-32L828.32-32L828.32-32Q830.34-30.08 830.34-26.14L830.34-26.14L830.34-26.14Q830.34-22.21 827.74-19.71L827.74-19.71L827.74-19.71Q825.15-17.22 820.74-17.22L820.74-17.22L820.74-17.22Q818.82-17.22 818.05-17.98ZM846.72-3.52L846.72-3.52L846.72-3.52Q844.74 1.28 838.40 1.28L838.40 1.28L838.40 1.28Q835.14 1.28 833.09-0.96L833.09-0.96L833.09-0.96Q831.36-2.94 831.36-4.93L831.36-4.93L831.36-4.93Q831.36-10.11 833.73-20.22L833.73-20.22L836.10-32.64L849.09-33.92L845.18-13.70L845.18-13.70Q844.10-8.96 844.10-7.30L844.10-7.30L844.10-7.30Q844.10-3.65 846.72-3.52ZM837.25-41.54L837.25-41.54L837.25-41.54Q837.25-44.03 839.33-45.38L839.33-45.38L839.33-45.38Q841.41-46.72 844.42-46.72L844.42-46.72L844.42-46.72Q847.42-46.72 849.25-45.38L849.25-45.38L849.25-45.38Q851.07-44.03 851.07-41.54L851.07-41.54L851.07-41.54Q851.07-39.04 849.06-37.76L849.06-37.76L849.06-37.76Q847.04-36.48 844.03-36.48L844.03-36.48L844.03-36.48Q841.02-36.48 839.14-37.76L839.14-37.76L839.14-37.76Q837.25-39.04 837.25-41.54ZM872.32-33.92L872.32-33.92L872.32-33.92Q874.62-33.92 876.42-33.41L876.42-33.41L876.42-33.41Q876.48-33.66 876.61-34.37L876.61-34.37L876.93-36.35L876.93-36.35Q877.18-37.63 877.57-39.74L877.57-39.74L878.59-44.80L891.33-46.08L884.22-8.96L884.22-8.96Q884.16-8.58 884.16-7.94L884.16-7.94L884.16-6.91L884.16-6.91Q884.16-5.50 884.86-4.45L884.86-4.45L884.86-4.45Q885.57-3.39 886.72-3.39L886.72-3.39L886.72-3.39Q885.44-0.38 881.54 0.90L881.54 0.90L881.54 0.90Q880.19 1.28 878.30 1.28L878.30 1.28L878.30 1.28Q876.42 1.28 874.69 0.29L874.69 0.29L874.69 0.29Q872.96-0.70 872.45-2.37L872.45-2.37L872.45-2.37Q871.42-0.70 869.38 0.29L869.38 0.29L869.38 0.29Q867.33 1.28 864.35 1.28L864.35 1.28L864.35 1.28Q861.38 1.28 858.91 0.51L858.91 0.51L858.91 0.51Q856.45-0.26 854.91-1.92L854.91-1.92L854.91-1.92Q852.10-5.18 852.10-12.61L852.10-12.61L852.10-12.61Q852.10-22.21 857.73-28.03L857.73-28.03L857.73-28.03Q863.36-33.92 872.32-33.92ZM871.87-30.08L871.87-30.08L871.87-30.08Q869.50-30.08 868.22-27.52L868.22-27.52L868.22-27.52Q866.94-24.96 865.63-18.62L865.63-18.62L865.63-18.62Q864.32-12.29 864.32-6.59L864.32-6.59L864.32-6.59Q864.32-2.69 866.62-2.69L866.62-2.69L866.62-2.69Q868.67-2.69 870.11-4.74L870.11-4.74L870.11-4.74Q871.55-6.78 872.13-10.18L872.13-10.18L875.58-28.93L875.58-28.93Q874.24-30.08 871.87-30.08Z" fill="#444"></path></g></g><style>text {
  font-size: 64px;
  font-family: Arial Black;
  dominant-baseline: central;
  text-anchor: middle;
}</style></svg>